<svg id="Layer_1" data-name="Layer 1" xmlns="http://www.w3.org/2000/svg" xmlns:xlink="http://www.w3.org/1999/xlink" viewBox="0 0 457.12 121.52"><defs><style>.cls-1{fill:url(#New_Gradient_Swatch);}.cls-2{fill:url(#New_Gradient_Swatch-2);}.cls-3{fill:url(#New_Gradient_Swatch-3);}.cls-4{fill:url(#New_Gradient_Swatch-4);}.cls-5{fill:url(#New_Gradient_Swatch-6);}.cls-6{fill:url(#New_Gradient_Swatch-7);}.cls-7{fill:url(#New_Gradient_Swatch-8);}.cls-8{fill:url(#New_Gradient_Swatch-9);}.cls-9{fill:url(#New_Gradient_Swatch-10);}.cls-10{fill:url(#New_Gradient_Swatch-11);}.cls-11{fill:url(#New_Gradient_Swatch-12);}.cls-12{fill:url(#New_Gradient_Swatch-13);}.cls-13{fill:url(#New_Gradient_Swatch-14);}.cls-14{fill:url(#New_Gradient_Swatch-15);}</style><linearGradient id="New_Gradient_Swatch" x1="-13.32" y1="58.05" x2="429.49" y2="74.28" gradientUnits="userSpaceOnUse"><stop offset="0" stop-color="#3dc3cd"/><stop offset="1" stop-color="#524263"/></linearGradient><linearGradient id="New_Gradient_Swatch-2" x1="-14.2" y1="81.96" x2="428.62" y2="98.18" xlink:href="#New_Gradient_Swatch"/><linearGradient id="New_Gradient_Swatch-3" x1="-12.45" y1="34.15" x2="430.37" y2="50.38" xlink:href="#New_Gradient_Swatch"/><linearGradient id="New_Gradient_Swatch-4" x1="-14.16" y1="80.94" x2="113.44" y2="85.62" xlink:href="#New_Gradient_Swatch"/><linearGradient id="New_Gradient_Swatch-6" x1="-7.51" y1="51.72" x2="435.31" y2="67.94" xlink:href="#New_Gradient_Swatch"/><linearGradient id="New_Gradient_Swatch-7" x1="-7.45" y1="50.08" x2="435.37" y2="66.3" xlink:href="#New_Gradient_Swatch"/><linearGradient id="New_Gradient_Swatch-8" x1="-7.66" y1="55.73" x2="435.16" y2="71.95" xlink:href="#New_Gradient_Swatch"/><linearGradient id="New_Gradient_Swatch-9" x1="-7.33" y1="46.69" x2="435.49" y2="62.91" xlink:href="#New_Gradient_Swatch"/><linearGradient id="New_Gradient_Swatch-10" x1="-7.35" y1="47.32" x2="435.47" y2="63.54" xlink:href="#New_Gradient_Swatch"/><linearGradient id="New_Gradient_Swatch-11" x1="-7.8" y1="59.71" x2="435.01" y2="75.93" xlink:href="#New_Gradient_Swatch"/><linearGradient id="New_Gradient_Swatch-12" x1="-7.49" y1="51.11" x2="435.33" y2="67.33" xlink:href="#New_Gradient_Swatch"/><linearGradient id="New_Gradient_Swatch-13" x1="-7.44" y1="49.82" x2="435.38" y2="66.04" xlink:href="#New_Gradient_Swatch"/><linearGradient id="New_Gradient_Swatch-14" x1="-7.4" y1="48.75" x2="435.42" y2="64.98" xlink:href="#New_Gradient_Swatch"/><linearGradient id="New_Gradient_Swatch-15" x1="-10.71" y1="51.99" x2="441.91" y2="68.58" xlink:href="#New_Gradient_Swatch"/></defs><path class="cls-1" d="M102.13,83.84a18.53,18.53,0,0,1-37.06.21h0v-.4h0c0-7-1.71-16.09-6.09-20.94-5.06-5.6-13.41-6.5-21.55-6.5h0A18.53,18.53,0,1,1,56,37.67c0,8,.34,17.74,5.74,22.79,4.94,4.61,14.62,4.85,21.91,4.85h0A18.53,18.53,0,0,1,102.13,83.84Z"/><path class="cls-2" d="M56,83.85A18.53,18.53,0,1,1,37.43,65.32,18.52,18.52,0,0,1,56,83.85Z"/><path class="cls-3" d="M102.13,37.67A18.53,18.53,0,1,1,83.6,19.15,18.52,18.52,0,0,1,102.13,37.67Z"/><path class="cls-4" d="M65.07,83.85v0Z"/><path class="cls-4" d="M65.07,83.85v0Z"/><path class="cls-5" d="M157.64,34.75h3V78.31H182V80.9H157.64Z"/><path class="cls-6" d="M186.7,36.29a2.59,2.59,0,1,1,5.18,0,2.6,2.6,0,1,1-5.18,0Zm1.12,11h2.87V80.9h-2.87Z"/><path class="cls-7" d="M201.69,47.28h2.45l.35,5.26h.14c3.43-3.43,6.93-6.1,11.55-6.1,6.94,0,10.16,4.21,10.16,12.89V80.9h-2.87V59.68c0-7.14-2.32-10.64-7.78-10.64-4.06,0-7,2.17-11.13,6.44V80.9h-2.87Z"/><path class="cls-8" d="M236.77,30.48h2.87V67.87h.14l16.74-20.59h3.36L249,60.59,261.77,80.9h-3.22L247.28,62.76l-7.64,9V80.9h-2.87Z"/><path class="cls-9" d="M263.8,74.73l1.9-2A18,18,0,0,0,279.35,79c7.14,0,11.62-3.86,11.62-9.46,0-5.81-3.78-7.7-8.33-9.73l-7-3.15c-4-1.82-9.38-4.62-9.38-11.49,0-6.65,5.67-11.27,13.3-11.27a17.62,17.62,0,0,1,12.81,5.46l-1.75,2a14.9,14.9,0,0,0-11.06-4.76c-6.16,0-10.29,3.29-10.29,8.4,0,5.47,4.62,7.5,8,9l7.07,3.15c5.11,2.31,9.74,5.11,9.74,12.18s-5.82,12.4-14.71,12.4A20,20,0,0,1,263.8,74.73Z"/><path class="cls-10" d="M301.41,47.28h2.45l.35,4.28h.14c3.29-2.67,7.28-5.12,11.42-5.12,9,0,13.51,6.8,13.51,17.16,0,11.41-6.93,18.14-14.85,18.14-3.22,0-6.65-1.54-10.15-4.13V96.16h-2.87ZM326.2,63.6c0-8.33-2.94-14.56-10.85-14.56-3.37,0-6.94,2-11.07,5.6V74.8c3.85,3.16,7.49,4.35,10,4.35C321.23,79.15,326.2,72.77,326.2,63.6Z"/><path class="cls-11" d="M335,72.56c0-7.49,6.8-11,21.78-12.67.07-5.25-1.33-10.85-8-10.85A19.06,19.06,0,0,0,338,52.89l-1.34-2.1A21.52,21.52,0,0,1,349,46.44c7.91,0,10.57,5.82,10.57,12.89V80.9h-2.45l-.35-4.42h-.14c-3.43,2.81-7.56,5.26-12,5.26C339.44,81.74,335,78.94,335,72.56Zm21.78,1.19V62.13C342.66,63.81,337.9,67,337.9,72.42c0,4.91,3.36,6.8,7.28,6.8S352.46,77.33,356.73,73.75Z"/><path class="cls-12" d="M366.82,64.16c0-11.2,7.14-17.72,15.26-17.72A13.37,13.37,0,0,1,392,50.65l-1.61,1.82a11.23,11.23,0,0,0-8.2-3.43c-6.93,0-12.32,6.16-12.32,15.12s4.9,15,12.32,15a13.59,13.59,0,0,0,9.11-3.72l1.47,1.83A15.16,15.16,0,0,1,382,81.74C373.4,81.74,366.82,75.29,366.82,64.16Z"/><path class="cls-13" d="M396.16,64.16c0-11,7.14-17.72,14.64-17.72,7.91,0,12.81,5.61,12.81,15.55a15.64,15.64,0,0,1-.14,2.52h-24.3c.07,8.54,5.11,14.71,12.75,14.71a15.86,15.86,0,0,0,9.1-2.74l1.19,2a17.39,17.39,0,0,1-10.57,3.29C403.09,81.74,396.16,75.15,396.16,64.16ZM420.88,62c0-8.68-4-13-10.08-13-5.75,0-10.93,4.91-11.63,13Z"/><path class="cls-14" d="M0,0V121.52H457.12V0ZM121.14,115.52H6V6H121.14Zm330,0H127.17V6h324Z"/></svg>