<svg id="Layer_1" data-name="Layer 1" xmlns="http://www.w3.org/2000/svg" viewBox="0 0 198.97 104.87"><defs><style>.cls-1{fill:#fff;}</style></defs><path class="cls-1" d="M94.43,56.22H89.51v27h4.92Zm-16.31,7H73.38v20h4.93V72.57c0-3.18,1.89-4.38,5.07-4.38h1.38v-5H83.31a5.44,5.44,0,0,0-5.19,3ZM59,63.23H56v4.12h3V78.73c0,3.33,1.39,4.67,5.29,4.67A20.3,20.3,0,0,0,67,83.3c.4,0,.73-.11,1.06-.15V79a4.3,4.3,0,0,1-.66,0c-.4,0-.91,0-1.38,0-1.61,0-2-.25-2-1.75v-10h4.49V63.23H64V57.68H59Zm-28.6,7.29c0,5.22,2.33,13.1,11.71,13.1,7.08,0,9.92-4.71,10.21-8.79H47.11c0,1.31-1.06,4.34-5.11,4.34-3.83,0-6.24-3-6.24-8.57,0-5.88,2.23-8.87,6.17-8.87,3.58,0,4.93,2.33,5,4.16h5.29c0-3.21-2.38-8.61-10-8.61-8.75,0-11.78,7.11-11.78,13.24m122.67.06a13.78,13.78,0,0,1,.38-3.29,8.48,8.48,0,0,1,1.21-2.83,6.07,6.07,0,0,1,2.16-2,7.51,7.51,0,0,1,6.5,0,6.19,6.19,0,0,1,2.17,2,8.91,8.91,0,0,1,1.21,2.83,14.31,14.31,0,0,1,.38,3.29,13.33,13.33,0,0,1-.38,3.16,8.81,8.81,0,0,1-1.21,2.76,6.33,6.33,0,0,1-2.17,2,7.51,7.51,0,0,1-6.5,0,6.21,6.21,0,0,1-2.16-2,8.38,8.38,0,0,1-1.21-2.76,12.83,12.83,0,0,1-.38-3.16m-4.53-5.24a15.8,15.8,0,0,0-.85,5.23,15.35,15.35,0,0,0,.85,5.14A12.24,12.24,0,0,0,151,79.85a11.12,11.12,0,0,0,3.9,2.77,14.07,14.07,0,0,0,10.42,0,11.14,11.14,0,0,0,3.88-2.77,12.43,12.43,0,0,0,2.44-4.14,15.35,15.35,0,0,0,.84-5.14,15.8,15.8,0,0,0-.84-5.23,12.7,12.7,0,0,0-2.44-4.22,11.13,11.13,0,0,0-3.88-2.82,13.82,13.82,0,0,0-10.42,0,11.12,11.12,0,0,0-3.9,2.82,12.51,12.51,0,0,0-2.43,4.22m45,34.19h-66.7V40.76h66.7Zm-72.85.22H5.59V40.54H120.7ZM199,35.42H.11v69.45H199Z"/><path class="cls-1" d="M9.58,13c0-3-1-5-3.6-5A5.47,5.47,0,0,0,2.34,9.87V17a5.13,5.13,0,0,0,3.33,1.41c2.25,0,3.91-2,3.91-5.41M2.17,18.66H2.09l-.23,1.41H0V0H2.34V5.47L2.25,7.92A7,7,0,0,1,6.57,6C10.09,6,12,8.77,12,13c0,4.68-2.82,7.42-5.95,7.42a6.07,6.07,0,0,1-3.89-1.75"/><path class="cls-1" d="M14.6,15.05V6.37h2.34v8.37c0,2.54.79,3.64,2.59,3.64,1.39,0,2.37-.71,3.64-2.31V6.37h2.34v13.7H23.59l-.19-2.14h-.09c-1.27,1.49-2.62,2.48-4.51,2.48-2.9,0-4.2-1.86-4.2-5.36"/><path class="cls-1" d="M29.32,6.37h2.34v13.7H29.32ZM29,2a1.55,1.55,0,0,1,3.1,0A1.55,1.55,0,0,1,29,2"/><path class="cls-1" d="M35.46,17.31V0H37.8V17.48c0,.73.31,1,.68,1a1.89,1.89,0,0,0,.48-.05l.31,1.74a3,3,0,0,1-1.36.26c-1.74,0-2.45-1.13-2.45-3.1"/><path class="cls-1" d="M42.23,15.81V8.26h-2V6.51l2.14-.14L42.62,2h1.94v4.4h3.73V8.26H44.56v7.61c0,1.66.57,2.62,2.12,2.62a3.64,3.64,0,0,0,1.58-.34l.48,1.67a6.57,6.57,0,0,1-2.6.59c-2.93,0-3.91-1.86-3.91-4.6"/><path class="cls-1" d="M65,13c0-3-1-5-3.6-5a5.47,5.47,0,0,0-3.64,1.86V17a5.13,5.13,0,0,0,3.33,1.41c2.25,0,3.91-2,3.91-5.41m-7.41,5.64h-.08l-.23,1.41H55.39V0h2.34V5.47l-.08,2.45A7,7,0,0,1,62,6c3.52,0,5.44,2.74,5.44,7,0,4.68-2.82,7.42-6,7.42a6.07,6.07,0,0,1-3.89-1.75"/><path class="cls-1" d="M68.81,25.68l.51-1.83a3.2,3.2,0,0,0,1,.17c1.52,0,2.51-1.22,3.07-2.91l.31-1L68.22,6.37h2.42l2.76,7.55c.45,1.19.9,2.6,1.36,3.87h.11c.36-1.24.76-2.65,1.13-3.87l2.45-7.55h2.28L75.57,21.2c-1,2.7-2.39,4.76-5.13,4.76a4.54,4.54,0,0,1-1.63-.28"/></svg>