<?xml version="1.0" encoding="UTF-8" standalone="no"?>
<!-- Created with Inkscape (http://www.inkscape.org/) -->

<svg
   version="1.1"
   width="113.38625"
   height="39.597126"
   id="svg2"
   xml:space="preserve"
   inkscape:version="1.1.2 (08b2f3d93c, 2022-04-05)"
   sodipodi:docname="ctrlo-white.svg"
   xmlns:inkscape="http://www.inkscape.org/namespaces/inkscape"
   xmlns:sodipodi="http://sodipodi.sourceforge.net/DTD/sodipodi-0.dtd"
   xmlns="http://www.w3.org/2000/svg"
   xmlns:svg="http://www.w3.org/2000/svg"
   xmlns:rdf="http://www.w3.org/1999/02/22-rdf-syntax-ns#"
   xmlns:cc="http://creativecommons.org/ns#"
   xmlns:dc="http://purl.org/dc/elements/1.1/"><sodipodi:namedview
     pagecolor="#ffffff"
     bordercolor="#666666"
     borderopacity="1"
     objecttolerance="10"
     gridtolerance="10"
     guidetolerance="10"
     inkscape:pageopacity="0"
     inkscape:pageshadow="2"
     inkscape:window-width="1848"
     inkscape:window-height="1016"
     id="namedview23"
     showgrid="false"
     inkscape:zoom="3.6419791"
     inkscape:cx="56.699941"
     inkscape:cy="19.632183"
     inkscape:window-x="72"
     inkscape:window-y="27"
     inkscape:window-maximized="1"
     inkscape:current-layer="svg2"
     inkscape:pagecheckerboard="0" /><metadata
     id="metadata8"><rdf:RDF><cc:Work
         rdf:about=""><dc:format>image/svg+xml</dc:format><dc:type
           rdf:resource="http://purl.org/dc/dcmitype/StillImage" /></cc:Work></rdf:RDF></metadata><defs
     id="defs6"><clipPath
       id="clipPath16"><path
         d="m 0,0 90.709,0 0,31.677 L 0,31.677 0,0 z"
         inkscape:connector-curvature="0"
         id="path18" /></clipPath><clipPath
       id="clipPath26"><path
         d="m 0,0 90.709,0 0,31.677 L 0,31.677 0,0 z m 57.504,29.515 31.04,0 0,-27.35 -31.04,0 0,27.35 z m -55.341,0 53.177,0 0,-27.35 -53.177,0 0,27.35 z m 38.616,-19.641 2.246,0 0,12.317 -2.246,0 0,-12.317 z m 29.832,11.37 C 69.908,20.93 69.314,20.503 68.833,19.956 l 0,0 C 68.35,19.408 67.981,18.767 67.722,18.033 l 0,0 c -0.256,-0.735 -0.386,-1.531 -0.386,-2.389 l 0,0 c 0,-0.836 0.13,-1.617 0.386,-2.341 l 0,0 c 0.259,-0.724 0.628,-1.354 1.111,-1.891 l 0,0 c 0.481,-0.536 1.075,-0.956 1.778,-1.263 l 0,0 c 0.703,-0.307 1.493,-0.458 2.374,-0.458 l 0,0 c 0.888,0 1.682,0.151 2.378,0.458 l 0,0 c 0.698,0.307 1.289,0.727 1.771,1.263 l 0,0 c 0.483,0.537 0.852,1.167 1.111,1.891 l 0,0 c 0.257,0.724 0.385,1.505 0.385,2.341 l 0,0 c 0,0.858 -0.128,1.654 -0.385,2.389 l 0,0 c -0.259,0.734 -0.628,1.375 -1.111,1.923 l 0,0 c -0.482,0.547 -1.073,0.974 -1.771,1.288 l 0,0 c -0.696,0.308 -1.49,0.465 -2.378,0.465 l 0,0 c -0.881,0 -1.671,-0.157 -2.374,-0.465 m 0.889,-9.2 c -0.406,0.224 -0.735,0.524 -0.986,0.897 l 0,0 c -0.255,0.374 -0.438,0.795 -0.553,1.261 l 0,0 c -0.116,0.466 -0.172,0.948 -0.172,1.441 l 0,0 c 0,0.516 0.056,1.015 0.172,1.498 l 0,0 c 0.115,0.484 0.298,0.915 0.553,1.293 l 0,0 c 0.251,0.38 0.58,0.681 0.986,0.907 l 0,0 c 0.406,0.224 0.902,0.337 1.485,0.337 l 0,0 c 0.579,0 1.075,-0.113 1.481,-0.337 l 0,0 c 0.406,-0.226 0.736,-0.527 0.988,-0.907 l 0,0 c 0.252,-0.378 0.437,-0.809 0.552,-1.293 l 0,0 c 0.115,-0.483 0.172,-0.982 0.172,-1.498 l 0,0 c 0,-0.493 -0.057,-0.975 -0.172,-1.441 l 0,0 c -0.115,-0.466 -0.3,-0.887 -0.552,-1.261 l 0,0 c -0.252,-0.373 -0.582,-0.673 -0.988,-0.897 l 0,0 C 74.06,11.819 73.564,11.706 72.985,11.706 l 0,0 c -0.583,0 -1.079,0.113 -1.485,0.338 m -57.668,3.623 c 0,-2.38 1.065,-5.976 5.342,-5.976 l 0,0 c 3.228,0 4.528,2.148 4.66,4.012 l 0,0 -2.394,0 c 0,-0.601 -0.485,-1.981 -2.333,-1.981 l 0,0 c -1.748,0 -2.845,1.365 -2.845,3.912 l 0,0 c 0,2.679 1.015,4.044 2.813,4.044 l 0,0 c 1.631,0 2.245,-1.065 2.296,-1.897 l 0,0 2.414,0 c 0,1.466 -1.082,3.928 -4.577,3.928 l 0,0 c -3.995,0 -5.376,-3.245 -5.376,-6.042 m 13.049,5.858 0,-2.529 -1.382,0 0,-1.881 1.382,0 0,-5.193 c 0,-1.514 0.631,-2.131 2.412,-2.131 l 0,0 c 0.466,0 0.883,0 1.198,0.05 l 0,0 c 0.184,0.018 0.334,0.05 0.483,0.067 l 0,0 0,1.896 c -0.083,-0.015 -0.183,-0.015 -0.299,-0.015 l 0,0 c -0.184,-0.016 -0.417,-0.016 -0.632,-0.016 l 0,0 c -0.733,0 -0.916,0.116 -0.916,0.798 l 0,0 0,4.544 2.047,0 0,1.881 -2.047,0 0,2.529 -2.246,0 z m 11.068,-2.529 c -1.116,0 -1.949,-0.5 -2.365,-1.348 l 0,0 0,1.348 -2.163,0 0,-9.12 2.246,0 0,4.859 c 0,1.448 0.866,1.999 2.314,1.999 l 0,0 0.633,0 0,2.262 -0.665,0 z"
         inkscape:connector-curvature="0"
         id="path28" /></clipPath><linearGradient
       x1="0"
       y1="0"
       x2="1"
       y2="0"
       id="linearGradient34"
       gradientUnits="userSpaceOnUse"
       gradientTransform="matrix(-323.75409,271.6618,271.6618,323.75409,117.66797,-286.95898)"
       spreadMethod="pad"><stop
         id="stop36"
         style="stop-color:#28b0ba;stop-opacity:1"
         offset="0" /><stop
         id="stop38"
         style="stop-color:#493a7d;stop-opacity:1"
         offset="0.94999701" /><stop
         id="stop40"
         style="stop-color:#493a7d;stop-opacity:1"
         offset="0.94999701" /><stop
         id="stop42"
         style="stop-color:#493a7d;stop-opacity:1"
         offset="1" /></linearGradient></defs><g
     transform="matrix(1.25,0,0,-1.25,0,39.597125)"
     id="g10"
     style="fill:#ffffff"><g
       id="g12"
       style="fill:#ffffff"><g
         clip-path="url(#clipPath16)"
         id="g14"
         style="fill:#ffffff"><path
           d="m 43.025,22.191 -2.246,0 0,-12.317 2.246,0 0,12.317 z m -7.441,-3.195 -2.163,0 0,-9.12 2.246,0 0,4.858 c 0,1.449 0.866,1.999 2.313,1.999 l 0.633,0 0,2.263 -0.665,0 c -1.115,0 -1.948,-0.5 -2.364,-1.348 l 0,1.348 z m -8.703,0 -1.382,0 0,-1.881 1.382,0 0,-5.193 c 0,-1.515 0.631,-2.131 2.412,-2.131 0.467,0 0.883,0 1.198,0.05 0.184,0.017 0.334,0.05 0.484,0.067 l 0,1.897 c -0.084,-0.016 -0.184,-0.016 -0.3,-0.016 -0.184,-0.017 -0.417,-0.017 -0.632,-0.017 -0.732,0 -0.916,0.117 -0.916,0.799 l 0,4.544 2.047,0 0,1.881 -2.047,0 0,2.529 -2.246,0 0,-2.529 z M 13.832,15.667 c 0,-2.38 1.064,-5.976 5.343,-5.976 3.227,0 4.526,2.148 4.659,4.012 l -2.395,0 c 0,-0.6 -0.484,-1.981 -2.332,-1.981 -1.748,0 -2.845,1.365 -2.845,3.912 0,2.679 1.015,4.044 2.812,4.044 1.632,0 2.246,-1.065 2.297,-1.897 l 2.414,0 c 0,1.465 -1.082,3.928 -4.577,3.928 -3.995,0 -5.376,-3.245 -5.376,-6.042 m 55.957,-0.024 c 0,0.515 0.057,1.015 0.172,1.499 0.115,0.483 0.299,0.914 0.553,1.292 0.252,0.379 0.58,0.681 0.986,0.907 0.406,0.224 0.902,0.337 1.484,0.337 0.58,0 1.077,-0.113 1.482,-0.337 0.406,-0.226 0.736,-0.528 0.988,-0.907 0.252,-0.378 0.437,-0.809 0.552,-1.292 0.115,-0.484 0.172,-0.984 0.172,-1.499 0,-0.494 -0.057,-0.975 -0.172,-1.441 -0.115,-0.467 -0.3,-0.888 -0.552,-1.261 -0.252,-0.373 -0.582,-0.673 -0.988,-0.897 -0.405,-0.226 -0.902,-0.338 -1.482,-0.338 -0.582,0 -1.078,0.112 -1.484,0.338 -0.406,0.224 -0.734,0.524 -0.986,0.897 -0.254,0.373 -0.438,0.794 -0.553,1.261 -0.115,0.466 -0.172,0.947 -0.172,1.441 m -2.066,2.39 c -0.257,-0.735 -0.387,-1.531 -0.387,-2.389 0,-0.836 0.13,-1.617 0.387,-2.341 0.257,-0.724 0.627,-1.354 1.11,-1.891 0.481,-0.536 1.075,-0.956 1.778,-1.263 0.703,-0.306 1.493,-0.458 2.373,-0.458 0.889,0 1.683,0.152 2.379,0.458 0.698,0.307 1.289,0.727 1.771,1.263 0.483,0.537 0.852,1.167 1.111,1.891 0.257,0.724 0.385,1.505 0.385,2.341 0,0.858 -0.128,1.654 -0.385,2.389 -0.259,0.734 -0.628,1.375 -1.111,1.923 -0.482,0.547 -1.073,0.975 -1.771,1.287 -0.696,0.31 -1.49,0.466 -2.379,0.466 -0.88,0 -1.67,-0.156 -2.373,-0.466 -0.703,-0.312 -1.297,-0.74 -1.778,-1.287 -0.483,-0.548 -0.853,-1.189 -1.11,-1.923 m 20.821,-15.869 -31.04,0 0,27.351 31.04,0 0,-27.351 z m -33.204,0 -53.177,0 0,27.351 53.177,0 0,-27.351 z M 90.709,31.678 0,31.678 0,0 l 90.709,0 0,31.678 z"
           inkscape:connector-curvature="0"
           id="path20"
           style="fill:#ffffff;fill-opacity:1;fill-rule:nonzero;stroke:none" /></g></g><g
       id="g22"
       style="fill:#ffffff"><g
         clip-path="url(#clipPath26)"
         id="g24"
         style="fill:#ffffff"><g
           id="g30"
           style="fill:#ffffff"><g
             id="g32"
             style="fill:#ffffff"><path
               d="m 0,0 90.709,0 0,31.677 L 0,31.677 0,0 z m 57.504,29.515 31.04,0 0,-27.35 -31.04,0 0,27.35 z m -55.341,0 53.177,0 0,-27.35 -53.177,0 0,27.35 z m 38.616,-19.641 2.246,0 0,12.317 -2.246,0 0,-12.317 z m 29.832,11.37 C 69.908,20.93 69.314,20.503 68.833,19.956 l 0,0 C 68.35,19.408 67.981,18.767 67.722,18.033 l 0,0 c -0.256,-0.735 -0.386,-1.531 -0.386,-2.389 l 0,0 c 0,-0.836 0.13,-1.617 0.386,-2.341 l 0,0 c 0.259,-0.724 0.628,-1.354 1.111,-1.891 l 0,0 c 0.481,-0.536 1.075,-0.956 1.778,-1.263 l 0,0 c 0.703,-0.307 1.493,-0.458 2.374,-0.458 l 0,0 c 0.888,0 1.682,0.151 2.378,0.458 l 0,0 c 0.698,0.307 1.289,0.727 1.771,1.263 l 0,0 c 0.483,0.537 0.852,1.167 1.111,1.891 l 0,0 c 0.257,0.724 0.385,1.505 0.385,2.341 l 0,0 c 0,0.858 -0.128,1.654 -0.385,2.389 l 0,0 c -0.259,0.734 -0.628,1.375 -1.111,1.923 l 0,0 c -0.482,0.547 -1.073,0.974 -1.771,1.288 l 0,0 c -0.696,0.308 -1.49,0.465 -2.378,0.465 l 0,0 c -0.881,0 -1.671,-0.157 -2.374,-0.465 m 0.889,-9.2 c -0.406,0.224 -0.735,0.524 -0.986,0.897 l 0,0 c -0.255,0.374 -0.438,0.795 -0.553,1.261 l 0,0 c -0.116,0.466 -0.172,0.948 -0.172,1.441 l 0,0 c 0,0.516 0.056,1.015 0.172,1.498 l 0,0 c 0.115,0.484 0.298,0.915 0.553,1.293 l 0,0 c 0.251,0.38 0.58,0.681 0.986,0.907 l 0,0 c 0.406,0.224 0.902,0.337 1.485,0.337 l 0,0 c 0.579,0 1.075,-0.113 1.481,-0.337 l 0,0 c 0.406,-0.226 0.736,-0.527 0.988,-0.907 l 0,0 c 0.252,-0.378 0.437,-0.809 0.552,-1.293 l 0,0 c 0.115,-0.483 0.172,-0.982 0.172,-1.498 l 0,0 c 0,-0.493 -0.057,-0.975 -0.172,-1.441 l 0,0 c -0.115,-0.466 -0.3,-0.887 -0.552,-1.261 l 0,0 c -0.252,-0.373 -0.582,-0.673 -0.988,-0.897 l 0,0 C 74.06,11.819 73.564,11.706 72.985,11.706 l 0,0 c -0.583,0 -1.079,0.113 -1.485,0.338 m -57.668,3.623 c 0,-2.38 1.065,-5.976 5.342,-5.976 l 0,0 c 3.228,0 4.528,2.148 4.66,4.012 l 0,0 -2.394,0 c 0,-0.601 -0.485,-1.981 -2.333,-1.981 l 0,0 c -1.748,0 -2.845,1.365 -2.845,3.912 l 0,0 c 0,2.679 1.015,4.044 2.813,4.044 l 0,0 c 1.631,0 2.245,-1.065 2.296,-1.897 l 0,0 2.414,0 c 0,1.466 -1.082,3.928 -4.577,3.928 l 0,0 c -3.995,0 -5.376,-3.245 -5.376,-6.042 m 13.049,5.858 0,-2.529 -1.382,0 0,-1.881 1.382,0 0,-5.193 c 0,-1.514 0.631,-2.131 2.412,-2.131 l 0,0 c 0.466,0 0.883,0 1.198,0.05 l 0,0 c 0.184,0.018 0.334,0.05 0.483,0.067 l 0,0 0,1.896 c -0.083,-0.015 -0.183,-0.015 -0.299,-0.015 l 0,0 c -0.184,-0.016 -0.417,-0.016 -0.632,-0.016 l 0,0 c -0.733,0 -0.916,0.116 -0.916,0.798 l 0,0 0,4.544 2.047,0 0,1.881 -2.047,0 0,2.529 -2.246,0 z m 11.068,-2.529 c -1.116,0 -1.949,-0.5 -2.365,-1.348 l 0,0 0,1.348 -2.163,0 0,-9.12 2.246,0 0,4.859 c 0,1.448 0.866,1.999 2.314,1.999 l 0,0 0.633,0 0,2.262 -0.665,0 z"
               inkscape:connector-curvature="0"
               id="path44"
               style="fill:#ffffff;stroke:none" /></g></g></g></g></g></svg>
