<svg xmlns="http://www.w3.org/2000/svg" xmlns:xlink="http://www.w3.org/1999/xlink" id="Layer_1" data-name="Layer 1" viewBox="0 0 198.97 104.87"><defs><style>.cls-1{fill:url(#New_Gradient_Swatch);}.cls-2{fill:url(#New_Gradient_Swatch-2);}.cls-3{fill:url(#New_Gradient_Swatch-3);}.cls-4{fill:url(#New_Gradient_Swatch-4);}.cls-5{fill:url(#New_Gradient_Swatch-5);}.cls-6{fill:url(#New_Gradient_Swatch-6);}.cls-7{fill:url(#New_Gradient_Swatch-7);}.cls-8{fill:url(#New_Gradient_Swatch-8);}</style><linearGradient id="New_Gradient_Swatch" x1="-33.86" y1="32.94" x2="198.89" y2="97.85" gradientUnits="userSpaceOnUse"><stop offset="0" stop-color="#3dc3cd"/><stop offset="1" stop-color="#524263"/></linearGradient><linearGradient id="New_Gradient_Swatch-2" x1="-25.41" y1="2.62" x2="207.34" y2="67.53" xlink:href="#New_Gradient_Swatch"/><linearGradient id="New_Gradient_Swatch-3" x1="-24.79" y1="0.4" x2="207.96" y2="65.31" xlink:href="#New_Gradient_Swatch"/><linearGradient id="New_Gradient_Swatch-4" x1="-23.39" y1="-4.61" x2="209.36" y2="60.3" xlink:href="#New_Gradient_Swatch"/><linearGradient id="New_Gradient_Swatch-5" x1="-22.82" y1="-6.65" x2="209.93" y2="58.25" xlink:href="#New_Gradient_Swatch"/><linearGradient id="New_Gradient_Swatch-6" x1="-22.55" y1="-7.64" x2="210.21" y2="57.27" xlink:href="#New_Gradient_Swatch"/><linearGradient id="New_Gradient_Swatch-7" x1="-21.41" y1="-11.71" x2="211.34" y2="53.2" xlink:href="#New_Gradient_Swatch"/><linearGradient id="New_Gradient_Swatch-8" x1="-21.65" y1="-10.86" x2="211.1" y2="54.05" xlink:href="#New_Gradient_Swatch"/></defs><path class="cls-1" d="M94.43,56.22H89.51v27h4.92Zm-16.31,7H73.38v20h4.93V72.57c0-3.18,1.89-4.38,5.07-4.38h1.38v-5H83.31a5.44,5.44,0,0,0-5.19,3ZM59,63.23H56v4.12h3V78.73c0,3.33,1.39,4.67,5.29,4.67A20.3,20.3,0,0,0,67,83.3c.4,0,.73-.11,1.06-.15V79a4.3,4.3,0,0,1-.66,0c-.4,0-.91,0-1.38,0-1.61,0-2-.25-2-1.75v-10h4.49V63.23H64V57.68H59Zm-28.6,7.29c0,5.22,2.33,13.1,11.71,13.1,7.08,0,9.92-4.71,10.21-8.79H47.11c0,1.31-1.06,4.34-5.11,4.34-3.83,0-6.24-3-6.24-8.57,0-5.88,2.23-8.87,6.17-8.87,3.58,0,4.93,2.33,5,4.16h5.29c0-3.21-2.38-8.61-10-8.61-8.75,0-11.78,7.11-11.78,13.24m122.67.06a13.78,13.78,0,0,1,.38-3.29,8.48,8.48,0,0,1,1.21-2.83,6.07,6.07,0,0,1,2.16-2,7.51,7.51,0,0,1,6.5,0,6.19,6.19,0,0,1,2.17,2,8.91,8.91,0,0,1,1.21,2.83,14.31,14.31,0,0,1,.38,3.29,13.33,13.33,0,0,1-.38,3.16,8.81,8.81,0,0,1-1.21,2.76,6.33,6.33,0,0,1-2.17,2,7.51,7.51,0,0,1-6.5,0,6.21,6.21,0,0,1-2.16-2,8.38,8.38,0,0,1-1.21-2.76,12.83,12.83,0,0,1-.38-3.16m-4.53-5.24a15.8,15.8,0,0,0-.85,5.23,15.35,15.35,0,0,0,.85,5.14A12.24,12.24,0,0,0,151,79.85a11.12,11.12,0,0,0,3.9,2.77,14.07,14.07,0,0,0,10.42,0,11.14,11.14,0,0,0,3.88-2.77,12.43,12.43,0,0,0,2.44-4.14,15.35,15.35,0,0,0,.84-5.14,15.8,15.8,0,0,0-.84-5.23,12.7,12.7,0,0,0-2.44-4.22,11.13,11.13,0,0,0-3.88-2.82,13.82,13.82,0,0,0-10.42,0,11.12,11.12,0,0,0-3.9,2.82,12.51,12.51,0,0,0-2.43,4.22m45,34.19h-66.7V40.76h66.7Zm-72.85.22H5.59V40.54H120.7ZM199,35.42H.11v69.45H199Z"/></svg>